<svg xmlns="http://www.w3.org/2000/svg" width="24" height="24" viewBox="0 0 24 24" fill="currentColor">
  <path d="M5 4.5H6.529L11.329 1.445L12 2.5L12.671 1.445L17.471 4.5H19Q19.61 4.5 20.168 4.736Q20.707 4.964 21.121 5.379Q21.536 5.793 21.764 6.332Q22 6.89 22 7.5V18.5Q22 19.11 21.764 19.668Q21.536 20.207 21.121 20.621Q20.707 21.036 20.168 21.264Q19.61 21.5 19 21.5H5Q4.39 21.5 3.832 21.264Q3.293 21.036 2.879 20.621Q2.464 20.207 2.236 19.668Q2 19.11 2 18.5L2 7.5Q2 6.89 2.236 6.332Q2.464 5.793 2.879 5.379Q3.293 4.964 3.832 4.736Q4.39 4.5 5 4.5ZM8.5 11H10.5Q10.5 10.694 10.617 10.416Q10.731 10.147 10.939 9.939Q11.147 9.731 11.416 9.617Q11.694 9.5 12 9.5Q12.306 9.5 12.584 9.617Q12.853 9.731 13.061 9.939Q13.269 10.147 13.383 10.416Q13.5 10.694 13.5 11Q13.5 11.359 13.073 11.82Q12.841 12.071 12.454 12.385Q12.203 12.588 11.642 13.007Q10.954 13.52 10.616 13.799Q10.019 14.292 9.621 14.748Q8.5 16.028 8.5 17.5V18.5H14.5V16.5H10.8Q10.932 16.286 11.125 16.065Q11.418 15.731 11.89 15.341Q12.189 15.093 12.837 14.61Q13.432 14.167 13.714 13.938Q14.212 13.534 14.54 13.179Q15.5 12.143 15.5 11Q15.5 10.289 15.225 9.637Q14.959 9.009 14.475 8.525Q13.991 8.041 13.363 7.775Q12.711 7.5 12 7.5Q11.289 7.5 10.637 7.775Q10.009 8.041 9.525 8.525Q9.041 9.009 8.775 9.637Q8.5 10.289 8.5 11ZM12.815 4.5 12 3.982 11.185 4.5Z"/>
</svg>
