<svg xmlns="http://www.w3.org/2000/svg" width="24" height="24" viewBox="0 0 24 24" fill="currentColor">
  <path d="M1.75 21.5V7.357L6.346 4.074L9.769 5.541L13.875 1.948L18.163 4.628L22.25 3.266V21.5H19.75V6.734L17.837 7.372L14.125 5.052L10.238 8.453C10.278 8.561 10.3 8.678 10.3 8.8C10.3 9.352 9.852 9.8 9.3 9.8C8.748 9.8 8.3 9.352 8.3 8.8C8.3 8.392 8.544 8.042 8.894 7.886L6.654 6.926L4.25 8.643V21.5ZM15.5 12C15.5 11.448 15.948 11 16.5 11C17.052 11 17.5 11.448 17.5 12C17.5 12.552 17.052 13 16.5 13C15.948 13 15.5 12.552 15.5 12ZM13.7 15.5C13.7 14.948 14.148 14.5 14.7 14.5C15.252 14.5 15.7 14.948 15.7 15.5C15.7 16.052 15.252 16.5 14.7 16.5C14.148 16.5 13.7 16.052 13.7 15.5ZM15.5 19C15.5 18.448 15.948 18 16.5 18C17.052 18 17.5 18.448 17.5 19C17.5 19.552 17.052 20 16.5 20C15.948 20 15.5 19.552 15.5 19ZM6.5 12C6.5 11.448 6.948 11 7.5 11C8.052 11 8.5 11.448 8.5 12C8.5 12.552 8.052 13 7.5 13C6.948 13 6.5 12.552 6.5 12ZM8.3 15.5C8.3 14.948 8.748 14.5 9.3 14.5C9.852 14.5 10.3 14.948 10.3 15.5C10.3 16.052 9.852 16.5 9.3 16.5C8.748 16.5 8.3 16.052 8.3 15.5ZM6.5 19C6.5 18.448 6.948 18 7.5 18C8.052 18 8.5 18.448 8.5 19C8.5 19.552 8.052 20 7.5 20C6.948 20 6.5 19.552 6.5 19ZM13.7 8.8C13.7 8.248 14.148 7.8 14.7 7.8C15.252 7.8 15.7 8.248 15.7 8.8C15.7 9.352 15.252 9.8 14.7 9.8C14.148 9.8 13.7 9.352 13.7 8.8Z"/>
</svg>
