<svg xmlns="http://www.w3.org/2000/svg" width="24" height="24" viewBox="0 0 24 24" fill="currentColor">
  <path d="M17.646 20.738Q16.891 21.226 16.048 21.582Q14.115 22.4 12 22.4Q9.885 22.4 7.952 21.582Q7.109 21.226 6.354 20.738L12 16.636ZM14.725 8.25 12.569 1.615Q14.377 1.711 16.048 2.418Q17.915 3.207 19.354 4.646Q20.793 6.085 21.582 7.952Q21.645 8.1 21.703 8.25ZM2.297 8.25Q2.355 8.1 2.418 7.952Q3.207 6.085 4.646 4.646Q6.085 3.207 7.952 2.418Q9.623 1.711 11.431 1.615L9.275 8.25ZM1.6 12Q1.6 10.627 1.945 9.33L7.591 13.433L5.435 20.068Q5.026 19.734 4.646 19.354Q3.207 17.915 2.418 16.048Q1.6 14.115 1.6 12ZM22.055 9.33Q22.4 10.627 22.4 12Q22.4 14.115 21.582 16.048Q20.793 17.915 19.354 19.354Q18.974 19.734 18.565 20.068L16.409 13.433ZM10.728 10.25H13.272L14.057 12.669L12 14.163L9.943 12.669ZM12.622 8.25H11.378L12 6.336ZM9.293 14.669 10.299 15.399 8.671 16.582ZM13.701 15.399 14.707 14.669 15.329 16.582ZM15.759 11.433 15.375 10.25H17.386ZM8.625 10.25 8.241 11.433 6.614 10.25Z"/>
</svg>
