<svg xmlns="http://www.w3.org/2000/svg" width="24" height="24" viewBox="0 0 24 24" fill="none" stroke="currentColor" stroke-width="1" stroke-linecap="butt" stroke-linejoin="miter">
  <path d="M2 17L2 9.5L19 9.5L22 13L22 17Z"/>
  <path d="M4.5 11.5H8V14H4.5Z"/>
  <path d="M9.5 11.5H13V14H9.5Z"/>
  <path d="M14.5 11.5H18V14H14.5Z"/>
  <path d="M4.5 3.6Q8.5 9 12.5 3.6Z"/>
  <path d="M8.5 7L8.5 9.5"/>
  <path d="M17 9.5L17 3.5"/>
  <path d="M4.1 18.6A2.4 2.4 0 1 0 8.9 18.6A2.4 2.4 0 1 0 4.1 18.6Z"/>
  <path d="M15.1 18.6A2.4 2.4 0 1 0 19.9 18.6A2.4 2.4 0 1 0 15.1 18.6Z"/>
  <path d="M5.7 18.6A0.8 0.8 0 1 0 7.3 18.6A0.8 0.8 0 1 0 5.7 18.6Z" fill="currentColor" stroke="none"/>
  <path d="M16.7 18.6A0.8 0.8 0 1 0 18.3 18.6A0.8 0.8 0 1 0 16.7 18.6Z" fill="currentColor" stroke="none"/>
</svg>
