<svg xmlns="http://www.w3.org/2000/svg" width="24" height="24" viewBox="0 0 24 24" fill="none" stroke="currentColor" stroke-width="2" stroke-linecap="round" stroke-linejoin="round">
  <path d="M3 3Q7.5 8.5 12 3Q16.5 8.5 21 3"/>
  <path d="M6 10A2 2 0 1 0 10 10A2 2 0 1 0 6 10Z" fill="currentColor" stroke="none"/>
  <path d="M14 10A2 2 0 1 0 18 10A2 2 0 1 0 14 10Z" fill="currentColor" stroke="none"/>
  <path d="M5 15a3 3.5 0 0 1 6 0Z" fill="currentColor" stroke="none"/>
  <path d="M13 15a3 3.5 0 0 1 6 0Z" fill="currentColor" stroke="none"/>
  <path d="M5.5 15H18.5A3 3 0 0 1 21.5 18V18A3 3 0 0 1 18.5 21H5.5A3 3 0 0 1 2.5 18V18A3 3 0 0 1 5.5 15Z"/>
</svg>
